<svg width="20" height="20" viewBox="0 0 20 20" fill="none" xmlns="http://www.w3.org/2000/svg">
<path fill-rule="evenodd" clip-rule="evenodd" d="M5.49994 8C5.49994 5.51472 7.51466 3.5 9.99994 3.5C12.4824 3.5 14.4954 5.51019 14.4999 7.99162V9.66584C14.4999 9.96302 14.6058 10.2505 14.7986 10.4767L16.3215 12.2635C16.7365 12.7504 16.3904 13.5 15.7507 13.5H4.24921C3.60944 13.5 3.26341 12.7504 3.6784 12.2635L5.20129 10.4767C5.39405 10.2505 5.49993 9.96302 5.49993 9.66584V8.00342C5.49994 8.00228 5.49994 8.00114 5.49994 8ZM4.01212 7.61463C4.21078 4.4805 6.81568 2 9.99994 2C13.1842 2 15.7892 4.48057 15.9878 7.61476C15.9958 7.65863 15.9999 7.70383 15.9999 7.75V7.99033C15.9999 7.99355 15.9999 7.99678 15.9999 8C15.9999 8.00114 15.9999 8.00228 15.9999 8.00342V9.57376L17.4631 11.2905C18.7081 12.7513 17.67 15 15.7507 15H13.6749C13.3275 16.7117 11.8141 18 9.99993 18C8.18571 18 6.6724 16.7117 6.32494 15H4.24921C2.32989 15 1.2918 12.7513 2.53677 11.2905L3.99993 9.57376V7.75C3.99993 7.70378 4.00411 7.65854 4.01212 7.61463ZM9.99993 16.5C9.02027 16.5 8.18684 15.8739 7.87796 15H12.1219C11.813 15.8739 10.9796 16.5 9.99993 16.5Z" fill="#EBE2CA"/>
<path d="M4 13C5.00061 12.9645 5.99353 12.749 6.97984 12.5896C7.21689 12.5513 7.45255 12.5127 7.69304 12.5127C8.01325 12.5127 7.37001 12.6245 7.33211 12.6295C7.15239 12.6531 6.97062 12.6666 6.78927 12.6666C6.72964 12.6666 6.90723 12.644 6.96685 12.6452C7.65236 12.6583 8.33502 12.7345 9.02127 12.7407C9.84099 12.7481 10.6572 12.6742 11.4742 12.6195C11.7642 12.6001 12.6326 12.6095 12.3447 12.5697C12.0826 12.5334 11.7667 12.5638 11.5088 12.5654C11.1088 12.5678 10.7089 12.5724 10.3091 12.5839C10.1117 12.5896 10.1219 12.5975 10.3004 12.5668C10.9314 12.4583 11.56 12.3617 12.2003 12.3246C12.7908 12.2903 13.3518 12.3088 13.9299 12.1678C14.077 12.132 14.2636 12.1126 14.3977 12.0382C14.5827 11.9354 14.6593 12.0273 14.8048 12.1536C15.0909 12.4017 15.3921 12.5724 15.7346 12.7378C15.7417 12.7412 16.0549 12.8781 15.9916 12.896C15.9671 12.9029 15.9386 12.8956 15.9165 12.886C15.7891 12.8308 15.6558 12.7914 15.5209 12.7578C14.9086 12.6049 14.283 12.5391 13.7047 12.2676C13.5511 12.1955 13.3829 12.0903 13.2701 11.9612C13.1128 11.781 13.1874 11.3845 13.2081 11.1846C13.2781 10.5074 13.4086 9.83436 13.5185 9.1626C13.5679 8.8604 13.6383 8.54974 13.6383 8.24208C13.6383 7.91964 13.6164 7.59719 13.6152 7.27454C13.615 7.22222 13.6577 6.92227 13.6008 6.87413C13.5389 6.82176 13.4344 7.28325 13.4333 7.33724C13.4301 7.4936 13.3404 7.37447 13.2557 7.29734C12.9704 7.03767 12.6718 6.79233 12.3938 6.52502C12.2026 6.3412 12.0233 6.14963 11.7918 6.01488C11.7039 5.96376 11.6267 5.89617 11.5492 5.83106C11.4581 5.75444 11.3603 5.73912 11.2504 5.69854C11.0968 5.64184 10.9597 5.55132 10.8028 5.5019C10.6201 5.44433 10.4766 5.36019 10.3004 5.29101C10.1187 5.21968 9.90031 5.19567 9.70559 5.20266C9.50414 5.20989 9.32707 5.43807 9.15986 5.53467C8.57396 5.87318 8.14425 6.43851 7.68149 6.91545C7.41019 7.19507 7.20817 7.55195 6.96829 7.85877C6.77066 8.11156 6.64229 8.41409 6.53229 8.71374C6.33328 9.25588 6.16754 9.82024 6.08474 10.3923C6.0687 10.5031 6.07896 10.6197 6.07896 10.7315C6.07896 10.7765 6.06048 10.8729 6.08474 10.864C6.71068 10.6352 7.36706 10.4785 8.00489 10.2869C9.04464 9.97452 10.0796 9.64521 11.1089 9.30082C11.7582 9.08359 12.4581 8.90644 13.0724 8.59975C13.2387 8.51671 13.3915 8.38932 13.491 8.23211C13.5613 8.12109 13.5205 8.04191 13.4275 7.95852C13.0909 7.65673 12.6762 7.48981 12.2307 7.41561C11.4112 7.27915 10.7197 7.66019 10.2022 8.26061C9.97957 8.51897 9.86351 8.93246 9.92504 9.26947C10.0185 9.78144 10.5017 9.75835 10.8692 9.54592C11.1965 9.35677 11.3747 9.06903 11.5478 8.74224C11.7412 8.37692 11.8475 7.99497 11.5218 7.65928C10.8708 6.98838 9.6777 7.55094 9.42551 8.32331C9.28674 8.74829 9.14543 9.25396 9.14543 9.70551C9.14543 9.81662 9.31746 9.74896 9.37354 9.73543C10.2333 9.52801 11.0837 9.14826 11.8466 8.70947C11.8862 8.68671 12.1088 8.58047 12.0704 8.48575C12.0527 8.44215 11.9917 8.41711 11.9477 8.43303C11.6192 8.55191 11.8888 9.14403 11.9491 9.32932C12.1458 9.93341 12.3516 10.5577 12.3678 11.1989C12.3691 11.2485 10.3386 11.295 10.1676 11.3143C9.04253 11.4409 7.94319 11.7467 6.82392 11.9056C6.43326 11.9611 6.0338 11.9527 5.64007 11.9484C5.45352 11.9464 5.26289 11.9632 5.13765 11.8087C5.07273 11.7286 4.96557 11.5057 5.11167 11.4411C5.51541 11.2625 5.94976 11.1641 6.34605 10.9623C6.511 10.8783 6.70097 10.8208 6.85857 10.7258C7.06207 10.603 7.15592 10.3575 7.23971 10.1501C7.49318 9.52279 7.62167 8.84461 7.71325 8.17796C7.77285 7.74415 7.82736 7.29453 7.8172 6.8556C7.81284 6.66696 7.79705 6.49665 7.67283 6.34832C7.62008 6.28533 7.49054 6.10947 7.41296 6.08043C7.39695 6.07444 7.31245 6.08314 7.35232 6.05621C7.94619 5.65516 8.55452 5.27754 9.1411 4.86352C9.52679 4.59129 9.92779 4.23186 10.3755 4.05415C10.4163 4.03793 10.487 4 10.5328 4C10.5571 4 10.5458 4.03485 10.5487 4.04845C10.5627 4.11415 10.7567 4.18437 10.8028 4.21659C11.1935 4.48964 11.4992 4.84668 11.9087 5.10006C12.0279 5.1738 12.1015 5.31158 12.196 5.4107C12.3702 5.59341 12.5907 5.71822 12.7807 5.88236C12.971 6.04666 13.2264 6.28068 13.3135 6.51932C13.3832 6.71041 13.4096 6.92074 13.4333 7.12065C13.5462 8.07329 13.6672 9.02569 13.6672 9.98623C13.6672 10.1529 13.6672 10.3197 13.6672 10.4864" stroke="#EBE2CA" stroke-width="3" stroke-linecap="round"/>
<path d="M6 6.5C6 6.9 5.66667 7 5.5 7V6.5L6 6L6.5 7L8.5 8.5" stroke="#EBE2CA"/>
<path d="M11.2837 15.7254C10.8518 15.7314 10.4156 15.7768 9.98514 15.7768C9.80972 15.7768 9.63924 15.854 9.45799 15.854C9.32743 15.854 9.19841 15.822 9.07226 15.804C8.99491 15.7929 9.01836 15.6923 8.99512 15.6226" stroke="#EBE2CA" stroke-width="3" stroke-linecap="round"/>
</svg>
