<svg width="20" height="20" viewBox="0 0 20 20" fill="none" xmlns="http://www.w3.org/2000/svg">
<path fill-rule="evenodd" clip-rule="evenodd" d="M5.49994 8C5.49994 5.51472 7.51466 3.5 9.99994 3.5C12.4824 3.5 14.4954 5.51019 14.4999 7.99162V9.66584C14.4999 9.96302 14.6058 10.2505 14.7986 10.4767L16.3215 12.2635C16.7365 12.7504 16.3904 13.5 15.7507 13.5H4.24921C3.60944 13.5 3.26341 12.7504 3.6784 12.2635L5.20129 10.4767C5.39405 10.2505 5.49993 9.96302 5.49993 9.66584V8.00342C5.49994 8.00228 5.49994 8.00114 5.49994 8ZM4.01212 7.61463C4.21078 4.4805 6.81568 2 9.99994 2C13.1842 2 15.7892 4.48057 15.9878 7.61476C15.9958 7.65863 15.9999 7.70383 15.9999 7.75V7.99033C15.9999 7.99355 15.9999 7.99678 15.9999 8C15.9999 8.00114 15.9999 8.00228 15.9999 8.00342V9.57376L17.4631 11.2905C18.7081 12.7513 17.67 15 15.7507 15H13.6749C13.3275 16.7117 11.8141 18 9.99993 18C8.18571 18 6.6724 16.7117 6.32494 15H4.24921C2.32989 15 1.2918 12.7513 2.53677 11.2905L3.99993 9.57376V7.75C3.99993 7.70378 4.00411 7.65854 4.01212 7.61463ZM9.99993 16.5C9.02027 16.5 8.18684 15.8739 7.87796 15H12.1219C11.813 15.8739 10.9796 16.5 9.99993 16.5Z" fill="#EBE2CA"/>
</svg>
