<svg width="50" height="52" viewBox="0 0 50 52" fill="none" xmlns="http://www.w3.org/2000/svg">
<g filter="url(#filter0_d_217_616)">
<path d="M38.5405 28.6218L38.5417 33.3333C38.5417 39.0863 32.4789 43.75 25 43.75C17.5212 43.75 11.4583 39.0863 11.4583 33.3333L11.4571 28.6218L21.9024 34.583C23.6944 35.6055 25.866 35.6735 27.7085 34.7871L28.098 34.5826L38.5405 28.6218ZM26.0326 5.95208L44.7733 16.6486C45.4462 17.0327 45.8236 17.7351 45.8243 18.4581L45.8333 18.4583V31.25C45.8333 32.4006 44.9006 33.3333 43.75 33.3333C42.5994 33.3333 41.6667 32.4006 41.6667 31.25L41.6655 22.0385L26.0326 30.9639C25.3926 31.3291 24.6074 31.3292 23.9674 30.964L5.22083 20.2675C4.22148 19.6972 3.87359 18.4249 4.44381 17.4255C4.62861 17.1016 4.89695 16.8333 5.22083 16.6485L23.9674 5.95194C24.6074 5.58677 25.3926 5.58682 26.0326 5.95208Z" fill="#908373"/>
</g>
<defs>
<filter id="filter0_d_217_616" x="-4" y="0" width="58" height="58" filterUnits="userSpaceOnUse" color-interpolation-filters="sRGB">
<feFlood flood-opacity="0" result="BackgroundImageFix"/>
<feColorMatrix in="SourceAlpha" type="matrix" values="0 0 0 0 0 0 0 0 0 0 0 0 0 0 0 0 0 0 127 0" result="hardAlpha"/>
<feOffset dy="4"/>
<feGaussianBlur stdDeviation="2"/>
<feComposite in2="hardAlpha" operator="out"/>
<feColorMatrix type="matrix" values="0 0 0 0 0 0 0 0 0 0 0 0 0 0 0 0 0 0 0.25 0"/>
<feBlend mode="normal" in2="BackgroundImageFix" result="effect1_dropShadow_217_616"/>
<feBlend mode="normal" in="SourceGraphic" in2="effect1_dropShadow_217_616" result="shape"/>
</filter>
</defs>
</svg>
