<svg width="20" height="20" viewBox="0 0 20 20" fill="none" xmlns="http://www.w3.org/2000/svg">
<path fill-rule="evenodd" clip-rule="evenodd" d="M13.0764 2.64886C13.5094 2.21643 14.0783 2 14.6448 2C15.2113 2 15.7802 2.21643 16.2132 2.64886L17.3504 3.78467C17.7833 4.21709 18 4.78536 18 5.35115C18 5.91695 17.7833 6.48521 17.3504 6.91764L16.4086 7.85823L7.23857 17.0366C6.6209 17.6535 5.78317 18 4.90967 18H3.00004C2.44775 18 2.00003 17.5523 2.00004 17L2.00003 15.1073C1.99645 14.23 2.34387 13.3878 2.96477 12.7677L11.0882 4.63515L13.0764 2.64886ZM15.3619 6.78363L16.2891 5.85761C16.4292 5.71761 16.4991 5.53562 16.4991 5.35115C16.4991 5.16669 16.4292 4.9847 16.2891 4.8447L15.1519 3.70889C15.0117 3.56889 14.8295 3.49911 14.6448 3.49911C14.4601 3.49911 14.2779 3.56889 14.1377 3.70889L13.2106 4.63491L15.3619 6.78363ZM12.135 5.70975L4.02604 13.8277C3.68981 14.1635 3.50091 14.619 3.50091 15.0939L3.50019 16.2007C3.50009 16.3665 3.63443 16.5009 3.80019 16.5009H4.90967C5.38512 16.5009 5.8411 16.3123 6.1773 15.9765L14.2863 7.85847L12.135 5.70975Z" fill="#EBE2CA"/>
</svg>
