<svg width="20" height="20" viewBox="0 0 20 20" fill="none" xmlns="http://www.w3.org/2000/svg">
<path fill-rule="evenodd" clip-rule="evenodd" d="M9.25287 2.10718L9.28575 2.10718C9.69996 2.10718 10.0357 2.44296 10.0357 2.85718C10.0357 3.27139 9.69996 3.60718 9.28575 3.60718C8.1438 3.60718 7.33218 3.60775 6.69777 3.65922C6.07163 3.71001 5.68553 3.8066 5.38171 3.96141C4.77018 4.273 4.273 4.77018 3.96141 5.38171C3.80627 5.68618 3.70989 6.07043 3.65918 6.69106C3.60776 7.32044 3.60718 8.1247 3.60718 9.25718V10.7429C3.60718 11.8754 3.60776 12.6796 3.65918 13.309C3.70989 13.9296 3.80627 14.3139 3.96141 14.6184C4.273 15.2299 4.77018 15.7271 5.38171 16.0387C5.68553 16.1935 6.07163 16.2901 6.69777 16.3408C7.33218 16.3923 8.1438 16.3929 9.28575 16.3929C9.69996 16.3929 10.0357 16.7287 10.0357 17.1429C10.0357 17.5571 9.69996 17.8929 9.28575 17.8929H9.25285C8.15109 17.8929 7.27865 17.8929 6.57648 17.8359C5.85909 17.7777 5.25254 17.6563 4.70072 17.3752C3.80695 16.9198 3.0803 16.1931 2.6249 15.2993C2.34406 14.7482 2.22245 14.1445 2.16417 13.4312C2.10717 12.7335 2.10717 11.868 2.10718 10.7759V9.22418C2.10717 8.13203 2.10717 7.26653 2.16417 6.56891C2.22245 5.85552 2.34406 5.2519 2.6249 4.70072C3.0803 3.80695 3.80695 3.0803 4.70072 2.6249C5.25254 2.34373 5.85909 2.22233 6.57648 2.16413C7.27865 2.10717 8.1511 2.10717 9.25287 2.10718ZM13.7554 6.61256C14.0483 6.31967 14.5232 6.31967 14.8161 6.61256L17.6732 9.4697C17.9661 9.7626 17.9661 10.2375 17.6732 10.5304L14.8161 13.3875C14.5232 13.6804 14.0483 13.6804 13.7554 13.3875C13.4625 13.0946 13.4625 12.6197 13.7554 12.3268L15.3322 10.75H8.57146C8.15725 10.75 7.82146 10.4142 7.82146 10C7.82146 9.58582 8.15725 9.25003 8.57146 9.25003H15.3322L13.7554 7.67322C13.4625 7.38033 13.4625 6.90546 13.7554 6.61256Z" fill="#EBE2CA"/>
</svg>
