<svg width="245" height="58" viewBox="0 0 245 58" fill="none" xmlns="http://www.w3.org/2000/svg">
<g filter="url(#filter0_d_217_608)">
<path fill-rule="evenodd" clip-rule="evenodd" d="M88.1941 19.4994V38.9986H89.3311C91.1089 38.9986 97.9017 40.2115 101.374 41.1491C103.105 41.6166 106.291 42.649 108.455 43.4438C110.619 44.2382 112.612 44.9674 112.884 45.0635C113.279 45.2031 113.359 41.3507 113.278 25.9669L113.176 6.69537L109.045 4.98249C103.388 2.63718 96.8021 0.982407 90.0628 0.213299L88.1941 0V19.4994ZM135.332 0.526266C130.212 1.23726 123.745 2.97612 119.144 4.87827L114.75 6.69537L114.648 25.9312C114.592 36.5111 114.643 45.167 114.76 45.167C114.877 45.167 115.813 44.8154 116.84 44.3859C119.412 43.3106 125.183 41.4098 127.734 40.7978C130.736 40.0777 137.25 38.9986 138.595 38.9986H139.732V19.5193C139.732 1.17136 139.692 0.0418805 139.043 0.0733721C138.665 0.0915527 136.995 0.295436 135.332 0.526266ZM84.2599 23.5326V42.8048L89.8661 42.9769C97.0999 43.1986 104.625 44.5115 111.092 46.6799C113.908 47.624 113.996 47.6159 120.064 45.8488C126.6 43.945 131.12 43.2201 137.863 42.9944L143.666 42.8V23.5304V4.26045H142.486H141.306V22.0967V39.9326L139.437 40.1274C131.558 40.9485 125.81 42.3227 118.931 45.0297C116.47 45.9981 114.234 46.7903 113.963 46.7903C113.692 46.7903 111.456 45.9981 108.995 45.0297C102.116 42.3227 96.3678 40.9485 88.4892 40.1274L86.6204 39.9326V22.0967V4.26045H85.4402H84.2599V23.5326ZM80.4209 8.75011C80.0307 8.95464 79.9477 13.1161 80.0275 28.4681L80.129 47.9266L82.6863 47.8915C99.9455 47.6545 102.751 47.8113 109.661 49.3986C113.151 50.2005 114.775 50.2005 118.265 49.3986C125.175 47.8113 127.981 47.6545 145.24 47.8915L147.797 47.9266L147.898 28.4047L148 8.88257L147.112 8.68615C146.623 8.57837 146.002 8.48779 145.732 8.48552C145.344 8.48195 145.24 12.2661 145.24 26.337V44.1931L140.224 44.1944C132.565 44.1963 124.652 45.4904 117.324 47.9386L113.947 49.0668L110.608 47.9431C103.36 45.505 95.3649 44.1963 87.7023 44.1944L82.6863 44.1931V26.337V8.48097L81.8011 8.48584C81.314 8.48876 80.6932 8.60759 80.4209 8.75011Z" fill="#908373"/>
<path d="M160.637 33H154.977V32.2266C155.156 32.2109 155.34 32.1953 155.527 32.1797C155.723 32.1641 155.891 32.1328 156.031 32.0859C156.25 32.0156 156.418 31.8945 156.535 31.7227C156.652 31.543 156.711 31.3125 156.711 31.0312V27.9609C156.078 28.2266 155.52 28.4453 155.035 28.6172C154.551 28.7812 153.969 28.8633 153.289 28.8633C152.062 28.8633 151.16 28.6211 150.582 28.1367C150.012 27.6523 149.727 26.8828 149.727 25.8281V23.5312C149.727 23.2656 149.672 23.0469 149.562 22.875C149.453 22.7031 149.289 22.5703 149.07 22.4766C148.867 22.3828 148.668 22.3203 148.473 22.2891C148.285 22.2578 148.109 22.2344 147.945 22.2188V21.4453H153.594V22.2188C153.367 22.2344 153.168 22.2539 152.996 22.2773C152.832 22.3008 152.68 22.3281 152.539 22.3594C152.32 22.4219 152.16 22.5469 152.059 22.7344C151.957 22.9141 151.906 23.1406 151.906 23.4141V25.2422C151.906 26.0781 152.074 26.6797 152.41 27.0469C152.754 27.4141 153.324 27.5977 154.121 27.5977C154.473 27.5977 154.871 27.5625 155.316 27.4922C155.77 27.4219 156.234 27.3047 156.711 27.1406V23.5312C156.711 23.2734 156.656 23.0586 156.547 22.8867C156.438 22.707 156.273 22.5703 156.055 22.4766C155.852 22.3828 155.652 22.3203 155.457 22.2891C155.27 22.2578 155.094 22.2344 154.93 22.2188V21.4453H160.59V22.2188C160.363 22.2344 160.164 22.2539 159.992 22.2773C159.828 22.3008 159.676 22.3281 159.535 22.3594C159.316 22.4219 159.152 22.5469 159.043 22.7344C158.941 22.9141 158.891 23.1406 158.891 23.4141V30.9141C158.891 31.1875 158.938 31.4102 159.031 31.582C159.125 31.7461 159.285 31.875 159.512 31.9688C159.676 32.0469 159.852 32.1055 160.039 32.1445C160.234 32.1836 160.434 32.2109 160.637 32.2266V33ZM172.496 25.1484H171.781C171.711 24.9297 171.605 24.6719 171.465 24.375C171.332 24.0781 171.184 23.7969 171.02 23.5312C170.848 23.2422 170.652 22.9883 170.434 22.7695C170.223 22.543 170 22.4141 169.766 22.3828C169.523 22.3594 169.254 22.3438 168.957 22.3359C168.66 22.3203 168.406 22.3125 168.195 22.3125V30.9141C168.195 31.1797 168.25 31.3984 168.359 31.5703C168.469 31.7422 168.633 31.875 168.852 31.9688C169.023 32.0469 169.219 32.1055 169.438 32.1445C169.656 32.1836 169.871 32.2109 170.082 32.2266V33H164.199V32.2266C164.379 32.2109 164.582 32.1953 164.809 32.1797C165.043 32.1641 165.23 32.1328 165.371 32.0859C165.59 32.0156 165.75 31.8945 165.852 31.7227C165.961 31.543 166.016 31.3125 166.016 31.0312V22.3125C165.766 22.3203 165.484 22.332 165.172 22.3477C164.859 22.3555 164.613 22.3672 164.434 22.3828C164.23 22.3984 164.012 22.5273 163.777 22.7695C163.551 23.0117 163.352 23.2656 163.18 23.5312C163.016 23.7969 162.863 24.0938 162.723 24.4219C162.582 24.7422 162.484 24.9844 162.43 25.1484H161.715V21.4453H172.496V25.1484ZM183.863 30.2812C183.379 31.2031 182.73 31.9375 181.918 32.4844C181.105 33.0312 180.172 33.3047 179.117 33.3047C178.188 33.3047 177.371 33.1406 176.668 32.8125C175.973 32.4844 175.398 32.0391 174.945 31.4766C174.492 30.9141 174.152 30.2578 173.926 29.5078C173.707 28.7578 173.598 27.9648 173.598 27.1289C173.598 26.3789 173.715 25.6445 173.949 24.9258C174.191 24.1992 174.543 23.5469 175.004 22.9688C175.449 22.4141 176 21.9688 176.656 21.6328C177.32 21.2891 178.062 21.1172 178.883 21.1172C179.727 21.1172 180.449 21.25 181.051 21.5156C181.652 21.7812 182.141 22.1445 182.516 22.6055C182.875 23.043 183.141 23.5586 183.312 24.1523C183.492 24.7461 183.582 25.3906 183.582 26.0859V26.8594H175.93C175.93 27.6172 176 28.3047 176.141 28.9219C176.289 29.5391 176.52 30.082 176.832 30.5508C177.137 31.0039 177.535 31.3633 178.027 31.6289C178.52 31.8867 179.105 32.0156 179.785 32.0156C180.48 32.0156 181.078 31.8555 181.578 31.5352C182.086 31.207 182.574 30.6211 183.043 29.7773L183.863 30.2812ZM181.273 25.875C181.273 25.4375 181.234 24.9688 181.156 24.4688C181.086 23.9688 180.969 23.5508 180.805 23.2148C180.625 22.8555 180.379 22.5625 180.066 22.3359C179.754 22.1094 179.352 21.9961 178.859 21.9961C178.039 21.9961 177.355 22.3398 176.809 23.0273C176.27 23.707 175.977 24.6562 175.93 25.875H181.273ZM198.148 33H192.5V32.2266C192.68 32.2109 192.863 32.1953 193.051 32.1797C193.246 32.1641 193.414 32.1328 193.555 32.0859C193.773 32.0156 193.941 31.8945 194.059 31.7227C194.176 31.543 194.234 31.3125 194.234 31.0312V27.3516H189.09V30.9141C189.09 31.1797 189.145 31.3984 189.254 31.5703C189.363 31.7422 189.527 31.875 189.746 31.9688C189.91 32.0469 190.086 32.1055 190.273 32.1445C190.469 32.1836 190.668 32.2109 190.871 32.2266V33H185.223V32.2266C185.402 32.2109 185.586 32.1953 185.773 32.1797C185.969 32.1641 186.137 32.1328 186.277 32.0859C186.496 32.0156 186.656 31.8945 186.758 31.7227C186.867 31.543 186.922 31.3125 186.922 31.0312V23.5312C186.922 23.2734 186.867 23.0586 186.758 22.8867C186.648 22.707 186.484 22.5703 186.266 22.4766C186.062 22.3828 185.863 22.3203 185.668 22.2891C185.48 22.2578 185.305 22.2344 185.141 22.2188V21.4453H190.789V22.2188C190.562 22.2344 190.363 22.2539 190.191 22.2773C190.027 22.3008 189.875 22.3281 189.734 22.3594C189.516 22.4219 189.352 22.5469 189.242 22.7344C189.141 22.9141 189.09 23.1406 189.09 23.4141V26.3906H194.234V23.5312C194.234 23.2734 194.18 23.0586 194.07 22.8867C193.961 22.707 193.797 22.5703 193.578 22.4766C193.375 22.3828 193.176 22.3203 192.98 22.2891C192.793 22.2578 192.617 22.2344 192.453 22.2188V21.4453H198.102V22.2188C197.875 22.2344 197.676 22.2539 197.504 22.2773C197.34 22.3008 197.188 22.3281 197.047 22.3594C196.828 22.4219 196.664 22.5469 196.555 22.7344C196.453 22.9141 196.402 23.1406 196.402 23.4141V30.9141C196.402 31.1875 196.449 31.4102 196.543 31.582C196.637 31.7461 196.797 31.875 197.023 31.9688C197.188 32.0469 197.363 32.1055 197.551 32.1445C197.746 32.1836 197.945 32.2109 198.148 32.2266V33ZM212.855 33H207.242V32.2266C207.422 32.2109 207.605 32.1953 207.793 32.1797C207.988 32.1641 208.156 32.1328 208.297 32.0859C208.516 32.0156 208.684 31.8945 208.801 31.7227C208.918 31.543 208.977 31.3125 208.977 31.0312V24.9609L203.656 30.7148V30.9141C203.656 31.1797 203.711 31.3984 203.82 31.5703C203.93 31.7422 204.094 31.875 204.312 31.9688C204.484 32.0469 204.664 32.1055 204.852 32.1445C205.047 32.1836 205.25 32.2109 205.461 32.2266V33H199.848V32.2266C200.027 32.2109 200.211 32.1953 200.398 32.1797C200.594 32.1641 200.762 32.1328 200.902 32.0859C201.121 32.0156 201.281 31.8945 201.383 31.7227C201.492 31.543 201.547 31.3125 201.547 31.0312V23.5312C201.547 23.2734 201.492 23.0586 201.383 22.8867C201.273 22.707 201.109 22.5703 200.891 22.4766C200.688 22.3828 200.488 22.3203 200.293 22.2891C200.105 22.2578 199.93 22.2344 199.766 22.2188V21.4453H205.379V22.2188C205.152 22.2344 204.953 22.2539 204.781 22.2773C204.617 22.3008 204.465 22.3281 204.324 22.3594C204.105 22.4219 203.941 22.5469 203.832 22.7344C203.73 22.9141 203.68 23.1406 203.68 23.4141V29.3906L209 23.625C209 23.2812 208.945 23.0273 208.836 22.8633C208.727 22.6992 208.562 22.5703 208.344 22.4766C208.141 22.3828 207.938 22.3203 207.734 22.2891C207.539 22.2578 207.359 22.2344 207.195 22.2188V21.4453H212.809V22.2188C212.582 22.2344 212.383 22.2539 212.211 22.2773C212.047 22.3008 211.895 22.3281 211.754 22.3594C211.535 22.4219 211.371 22.5469 211.262 22.7344C211.16 22.9141 211.109 23.1406 211.109 23.4141V30.9141C211.109 31.1875 211.156 31.4102 211.25 31.582C211.344 31.7461 211.504 31.875 211.73 31.9688C211.895 32.0469 212.07 32.1055 212.258 32.1445C212.453 32.1836 212.652 32.2109 212.855 32.2266V33ZM224.785 30.2812C224.301 31.2031 223.652 31.9375 222.84 32.4844C222.027 33.0312 221.094 33.3047 220.039 33.3047C219.109 33.3047 218.293 33.1406 217.59 32.8125C216.895 32.4844 216.32 32.0391 215.867 31.4766C215.414 30.9141 215.074 30.2578 214.848 29.5078C214.629 28.7578 214.52 27.9648 214.52 27.1289C214.52 26.3789 214.637 25.6445 214.871 24.9258C215.113 24.1992 215.465 23.5469 215.926 22.9688C216.371 22.4141 216.922 21.9688 217.578 21.6328C218.242 21.2891 218.984 21.1172 219.805 21.1172C220.648 21.1172 221.371 21.25 221.973 21.5156C222.574 21.7812 223.062 22.1445 223.438 22.6055C223.797 23.043 224.062 23.5586 224.234 24.1523C224.414 24.7461 224.504 25.3906 224.504 26.0859V26.8594H216.852C216.852 27.6172 216.922 28.3047 217.062 28.9219C217.211 29.5391 217.441 30.082 217.754 30.5508C218.059 31.0039 218.457 31.3633 218.949 31.6289C219.441 31.8867 220.027 32.0156 220.707 32.0156C221.402 32.0156 222 31.8555 222.5 31.5352C223.008 31.207 223.496 30.6211 223.965 29.7773L224.785 30.2812ZM222.195 25.875C222.195 25.4375 222.156 24.9688 222.078 24.4688C222.008 23.9688 221.891 23.5508 221.727 23.2148C221.547 22.8555 221.301 22.5625 220.988 22.3359C220.676 22.1094 220.273 21.9961 219.781 21.9961C218.961 21.9961 218.277 22.3398 217.73 23.0273C217.191 23.707 216.898 24.6562 216.852 25.875H222.195Z" fill="#908373"/>
<path d="M22.3242 33.3047C20.6523 33.3047 19.3438 32.75 18.3984 31.6406C17.4531 30.5312 16.9805 29.043 16.9805 27.1758C16.9805 26.3633 17.1055 25.6055 17.3555 24.9023C17.6133 24.1914 17.9844 23.5469 18.4688 22.9688C18.9297 22.4141 19.5078 21.9688 20.2031 21.6328C20.8984 21.2891 21.6562 21.1172 22.4766 21.1172C23.6094 21.1172 24.5312 21.3906 25.2422 21.9375C25.9531 22.4766 26.3086 23.2148 26.3086 24.1523C26.3086 24.543 26.2148 24.8906 26.0273 25.1953C25.8398 25.4922 25.5312 25.6406 25.1016 25.6406C24.6406 25.6406 24.2812 25.5234 24.0234 25.2891C23.7734 25.0547 23.6484 24.793 23.6484 24.5039C23.6484 24.1523 23.6953 23.793 23.7891 23.4258C23.8828 23.0508 23.9375 22.7773 23.9531 22.6055C23.8125 22.3633 23.6016 22.2031 23.3203 22.125C23.0469 22.0391 22.75 21.9961 22.4297 21.9961C22.0547 21.9961 21.6953 22.0781 21.3516 22.2422C21.0156 22.3984 20.6875 22.6914 20.3672 23.1211C20.0781 23.5117 19.8438 24.0391 19.6641 24.7031C19.4844 25.3672 19.3945 26.1602 19.3945 27.082C19.3945 28.5352 19.7148 29.7227 20.3555 30.6445C21.0039 31.5586 21.8516 32.0156 22.8984 32.0156C23.6562 32.0156 24.2891 31.832 24.7969 31.4648C25.3125 31.0977 25.7891 30.5469 26.2266 29.8125L26.9766 30.3047C26.4609 31.2266 25.7812 31.957 24.9375 32.4961C24.0938 33.0352 23.2227 33.3047 22.3242 33.3047ZM40.1367 33H36.1641C35.9688 32.3594 35.793 31.8125 35.6367 31.3594C35.4805 30.8984 35.25 30.3672 34.9453 29.7656C34.5781 29.0312 34.1719 28.5 33.7266 28.1719C33.2891 27.8438 32.7227 27.6797 32.0273 27.6797H31.7578V30.9141C31.7578 31.1797 31.8125 31.3984 31.9219 31.5703C32.0312 31.7422 32.1953 31.875 32.4141 31.9688C32.5781 32.0469 32.7539 32.1055 32.9414 32.1445C33.1367 32.1836 33.3359 32.2109 33.5391 32.2266V33H27.9023V32.2266C28.082 32.2109 28.2656 32.1953 28.4531 32.1797C28.6484 32.1641 28.8164 32.1328 28.957 32.0859C29.1758 32.0156 29.3359 31.8945 29.4375 31.7227C29.5469 31.543 29.6016 31.3125 29.6016 31.0312V23.5312C29.6016 23.2734 29.5469 23.0586 29.4375 22.8867C29.3281 22.707 29.1641 22.5703 28.9453 22.4766C28.7422 22.3828 28.543 22.3203 28.3477 22.2891C28.1602 22.2578 27.9844 22.2344 27.8203 22.2188V21.4453H33.457V22.2188C33.2305 22.2344 33.0312 22.2539 32.8594 22.2773C32.6953 22.3008 32.543 22.3281 32.4023 22.3594C32.1836 22.4219 32.0195 22.5469 31.9102 22.7344C31.8086 22.9141 31.7578 23.1406 31.7578 23.4141V26.8008H32.4961C32.7539 26.8008 33.0117 26.75 33.2695 26.6484C33.5273 26.5469 33.7422 26.4062 33.9141 26.2266C34.1328 25.9922 34.3281 25.6836 34.5 25.3008C34.6719 24.918 34.8164 24.5586 34.9336 24.2227C35.0586 23.8711 35.1992 23.5078 35.3555 23.1328C35.5195 22.7578 35.6836 22.4688 35.8477 22.2656C36.1367 21.9141 36.4453 21.668 36.7734 21.5273C37.1094 21.3789 37.4766 21.3047 37.875 21.3047C38.4766 21.3047 38.918 21.4336 39.1992 21.6914C39.4805 21.9492 39.6211 22.2734 39.6211 22.6641C39.6211 23 39.5078 23.2891 39.2812 23.5312C39.0625 23.7734 38.7695 23.8945 38.4023 23.8945C38.0508 23.8945 37.7734 23.8047 37.5703 23.625C37.375 23.4453 37.1016 23.1445 36.75 22.7227C36.6016 22.8555 36.457 23.1367 36.3164 23.5664C36.1836 23.9883 36.0547 24.3594 35.9297 24.6797C35.6953 25.3125 35.4531 25.8008 35.2031 26.1445C34.9609 26.4883 34.6758 26.7656 34.3477 26.9766V27.1289C35.0586 27.2695 35.6211 27.5273 36.0352 27.9023C36.457 28.2773 36.8125 28.75 37.1016 29.3203C37.2422 29.5938 37.3984 29.9297 37.5703 30.3281C37.75 30.7188 37.8672 30.9766 37.9219 31.1016C38.0781 31.4531 38.2656 31.6953 38.4844 31.8281C38.7031 31.9531 38.9062 32.0312 39.0938 32.0625C39.2734 32.1016 39.4531 32.1367 39.6328 32.168C39.8203 32.1914 39.9883 32.2109 40.1367 32.2266V33ZM52.3828 27.1055C52.3828 27.918 52.2539 28.7188 51.9961 29.5078C51.7383 30.2891 51.3711 30.9531 50.8945 31.5C50.3555 32.125 49.7305 32.5898 49.0195 32.8945C48.3086 33.1992 47.5117 33.3516 46.6289 33.3516C45.8945 33.3516 45.1953 33.2148 44.5312 32.9414C43.8672 32.6602 43.2773 32.2539 42.7617 31.7227C42.2539 31.1992 41.8477 30.5625 41.543 29.8125C41.2461 29.0547 41.0977 28.207 41.0977 27.2695C41.0977 25.4648 41.6211 23.9883 42.668 22.8398C43.7227 21.6914 45.1016 21.1172 46.8047 21.1172C48.4219 21.1172 49.7539 21.6641 50.8008 22.7578C51.8555 23.8438 52.3828 25.293 52.3828 27.1055ZM49.957 27.1289C49.957 26.543 49.8984 25.9258 49.7812 25.2773C49.6641 24.6211 49.4883 24.0664 49.2539 23.6133C49.0039 23.1289 48.6758 22.7422 48.2695 22.4531C47.8633 22.1562 47.3672 22.0078 46.7812 22.0078C46.1797 22.0078 45.6641 22.1562 45.2344 22.4531C44.8125 22.75 44.4688 23.1562 44.2031 23.6719C43.9531 24.1484 43.7773 24.6914 43.6758 25.3008C43.5742 25.9102 43.5234 26.5 43.5234 27.0703C43.5234 27.8203 43.582 28.5156 43.6992 29.1562C43.8242 29.7891 44.0195 30.3555 44.2852 30.8555C44.5508 31.3555 44.8828 31.75 45.2812 32.0391C45.6875 32.3203 46.1875 32.4609 46.7812 32.4609C47.7578 32.4609 48.5312 31.9883 49.1016 31.043C49.6719 30.0977 49.957 28.793 49.957 27.1289ZM64.6172 22.8164C65.0781 23.3633 65.4336 24 65.6836 24.7266C65.9414 25.4453 66.0703 26.2695 66.0703 27.1992C66.0703 28.1133 65.918 28.9492 65.6133 29.707C65.3086 30.457 64.9062 31.0977 64.4062 31.6289C63.8828 32.168 63.3008 32.582 62.6602 32.8711C62.0195 33.1602 61.3398 33.3047 60.6211 33.3047C59.9258 33.3047 59.3555 33.2266 58.9102 33.0703C58.4648 32.9141 58.1016 32.7305 57.8203 32.5195H57.7266V35.9883C57.7266 36.2695 57.7812 36.5039 57.8906 36.6914C58 36.8789 58.168 37.0156 58.3945 37.1016C58.582 37.1719 58.8477 37.2383 59.1914 37.3008C59.543 37.3711 59.832 37.4102 60.0586 37.418V38.2031H53.6016V37.418C53.8438 37.4023 54.0781 37.3828 54.3047 37.3594C54.5312 37.3359 54.7344 37.2969 54.9141 37.2422C55.1484 37.1641 55.3125 37.0273 55.4062 36.832C55.5 36.6367 55.5469 36.4062 55.5469 36.1406V23.8477C55.5469 23.6133 55.4883 23.3867 55.3711 23.168C55.2539 22.9492 55.1016 22.7734 54.9141 22.6406C54.7734 22.5469 54.5781 22.4766 54.3281 22.4297C54.0781 22.375 53.8359 22.3398 53.6016 22.3242V21.5625L57.5391 21.3047L57.7031 21.4453V22.7461L57.7969 22.7695C58.2031 22.3008 58.707 21.9102 59.3086 21.5977C59.9102 21.2852 60.5078 21.1289 61.1016 21.1289C61.8203 21.1289 62.4766 21.2812 63.0703 21.5859C63.6719 21.8906 64.1875 22.3008 64.6172 22.8164ZM62.707 31.125C63.0195 30.6406 63.25 30.0781 63.3984 29.4375C63.5469 28.7969 63.6211 28.082 63.6211 27.293C63.6211 26.7148 63.5586 26.125 63.4336 25.5234C63.3086 24.9219 63.1133 24.3984 62.8477 23.9531C62.582 23.5 62.2344 23.1328 61.8047 22.8516C61.375 22.5703 60.8594 22.4297 60.2578 22.4297C59.6797 22.4297 59.1875 22.5586 58.7812 22.8164C58.375 23.0664 58.0234 23.3672 57.7266 23.7188V30.5508C57.7969 30.7617 57.9102 30.9805 58.0664 31.207C58.2305 31.4336 58.4102 31.6289 58.6055 31.793C58.8477 31.9883 59.1094 32.1484 59.3906 32.2734C59.6719 32.3906 60.0156 32.4492 60.4219 32.4492C60.8594 32.4492 61.2812 32.3359 61.6875 32.1094C62.0938 31.875 62.4336 31.5469 62.707 31.125ZM79.0312 27.1055C79.0312 27.918 78.9023 28.7188 78.6445 29.5078C78.3867 30.2891 78.0195 30.9531 77.543 31.5C77.0039 32.125 76.3789 32.5898 75.668 32.8945C74.957 33.1992 74.1602 33.3516 73.2773 33.3516C72.543 33.3516 71.8438 33.2148 71.1797 32.9414C70.5156 32.6602 69.9258 32.2539 69.4102 31.7227C68.9023 31.1992 68.4961 30.5625 68.1914 29.8125C67.8945 29.0547 67.7461 28.207 67.7461 27.2695C67.7461 25.4648 68.2695 23.9883 69.3164 22.8398C70.3711 21.6914 71.75 21.1172 73.4531 21.1172C75.0703 21.1172 76.4023 21.6641 77.4492 22.7578C78.5039 23.8438 79.0312 25.293 79.0312 27.1055ZM76.6055 27.1289C76.6055 26.543 76.5469 25.9258 76.4297 25.2773C76.3125 24.6211 76.1367 24.0664 75.9023 23.6133C75.6523 23.1289 75.3242 22.7422 74.918 22.4531C74.5117 22.1562 74.0156 22.0078 73.4297 22.0078C72.8281 22.0078 72.3125 22.1562 71.8828 22.4531C71.4609 22.75 71.1172 23.1562 70.8516 23.6719C70.6016 24.1484 70.4258 24.6914 70.3242 25.3008C70.2227 25.9102 70.1719 26.5 70.1719 27.0703C70.1719 27.8203 70.2305 28.5156 70.3477 29.1562C70.4727 29.7891 70.668 30.3555 70.9336 30.8555C71.1992 31.3555 71.5312 31.75 71.9297 32.0391C72.3359 32.3203 72.8359 32.4609 73.4297 32.4609C74.4062 32.4609 75.1797 31.9883 75.75 31.043C76.3203 30.0977 76.6055 28.793 76.6055 27.1289Z" fill="#908373"/>
</g>
<defs>
<filter id="filter0_d_217_608" x="12.9805" y="0" width="215.805" height="58" filterUnits="userSpaceOnUse" color-interpolation-filters="sRGB">
<feFlood flood-opacity="0" result="BackgroundImageFix"/>
<feColorMatrix in="SourceAlpha" type="matrix" values="0 0 0 0 0 0 0 0 0 0 0 0 0 0 0 0 0 0 127 0" result="hardAlpha"/>
<feOffset dy="4"/>
<feGaussianBlur stdDeviation="2"/>
<feComposite in2="hardAlpha" operator="out"/>
<feColorMatrix type="matrix" values="0 0 0 0 0 0 0 0 0 0 0 0 0 0 0 0 0 0 0.25 0"/>
<feBlend mode="normal" in2="BackgroundImageFix" result="effect1_dropShadow_217_608"/>
<feBlend mode="normal" in="SourceGraphic" in2="effect1_dropShadow_217_608" result="shape"/>
</filter>
</defs>
</svg>
