<svg width="16" height="16" viewBox="0 0 16 16" fill="none" xmlns="http://www.w3.org/2000/svg">
<g clip-path="url(#clip0_525_645)">
<path d="M7.15299 7.90589C7.15299 7.43807 7.53223 7.05883 8.00005 7.05883C8.46786 7.05883 8.8471 7.43807 8.8471 7.90589V11.3882C8.8471 11.8561 8.46786 12.2353 8.00005 12.2353C7.53223 12.2353 7.15299 11.8561 7.15299 11.3882V7.90589Z" fill="#EBE2CA"/>
<path d="M8.00005 3.76471C7.48025 3.76471 7.05887 4.18609 7.05887 4.70589C7.05887 5.22568 7.48025 5.64706 8.00005 5.64706C8.51984 5.64706 8.94122 5.22568 8.94122 4.70589C8.94122 4.18609 8.51984 3.76471 8.00005 3.76471Z" fill="#EBE2CA"/>
<path fill-rule="evenodd" clip-rule="evenodd" d="M8.02051 14.5C11.6104 14.5 14.5205 11.5899 14.5205 8C14.5205 4.41015 11.6104 1.5 8.02051 1.5C4.43066 1.5 1.52051 4.41015 1.52051 8C1.52051 11.5899 4.43066 14.5 8.02051 14.5ZM8.02051 16C12.4388 16 16.0205 12.4183 16.0205 8C16.0205 3.58172 12.4388 0 8.02051 0C3.60223 0 0.0205078 3.58172 0.0205078 8C0.0205078 12.4183 3.60223 16 8.02051 16Z" fill="#EBE2CA"/>
</g>
<defs>
<clipPath id="clip0_525_645">
<rect width="16" height="16" fill="white"/>
</clipPath>
</defs>
</svg>
